/* XPM */
static char *haskell_20[] = {
/* columns rows colors chars-per-pixel */
"18 18 2 1 ",
"  c None",
". c white",
/* pixels */
"                  "
"............ .....",
"............ .....",
"............ .....",
"............ .....",
"............ .....",
".....        .....",
"..... ...... .....",
"..... ...... .....",
"..... ...... .....",
"..... ...... .....",
"..... ...... .....",
"..... ...... .....",
"..... ...... .....",
"..... ...... .....",
"..... ...... .....",
"..... ...... .....",
"..... ...... .....",
"..... ...... .....",
"                  "
};
